Coordinates
nRows=118
nColumns=2
inDegrees=yes
endheader
time	ankle_angle_r	
3.07762	 -0.362198	
3.14919	 -0.386972	
3.22077	 -0.382477	
3.29234	 -0.316392	
3.36391	 -0.328312	
3.43548	 -0.379217	
3.50706	 -0.364627	
3.57863	 -0.361172	
3.6502	 -0.388833	
3.72177	 -0.424039	
3.79335	 -0.416768	
3.86492	 -0.373470	
3.93649	 -0.384628	
4.00806	 -0.413749	
4.07964	 -0.399340	
4.15121	 -0.384405	
4.22278	 -0.407368	
4.29435	 -0.427155	
4.36593	 -0.408824	
4.4375	 -0.382198	
4.50907	 -0.397069	
4.58065	 -0.431204	
4.65222	 -0.404310	
4.72379	 -0.367415	
4.79536	 -0.381845	
4.86694	 -0.398964	
4.93851	 -0.371985	
5.01008	 -0.316874	
5.08165	 -0.339010	
5.15323	 -0.374998	
5.2248	 -0.322441	
5.29637	 -0.307435	
5.36794	 -0.352446	
5.43952	 -0.376265	
5.51109	 -0.374058	
5.58266	 -0.362436	
5.65423	 -0.368256	
5.72581	 -0.384362	
5.79738	 -0.359806	
5.86895	 -0.303372	
5.94052	 -0.306596	
6.0121	 -0.332481	
6.08367	 -0.294019	
6.15524	 -0.287471	
6.22681	 -0.367389	
6.29839	 -0.400784	
6.36996	 -0.335331	
6.44153	 -0.318351	
6.5131	 -0.380044	
6.58468	 -0.399233	
6.65625	 -0.384448	
6.72782	 -0.402634	
6.7994	 -0.441773	
6.87097	 -0.447522	
6.94254	 -0.415243	
7.01411	 -0.385591	
7.08569	 -0.398999	
7.15726	 -0.424508	
7.22883	 -0.391856	
7.3004	 -0.368073	
7.37198	 -0.404507	
7.44355	 -0.424544	
7.51512	 -0.393533	
7.58669	 -0.391724	
7.65827	 -0.436869	
7.72984	 -0.415940	
7.80141	 -0.363280	
7.87298	 -0.371028	
7.94456	 -0.394375	
8.01613	 -0.380796	
8.0877	 -0.335827	
8.15927	 -0.314801	
8.23085	 -0.338362	
8.30242	 -0.359060	
8.37399	 -0.334032	
8.44556	 -0.323723	
8.51714	 -0.353541	
8.58871	 -0.330918	
8.66028	 -0.318760	
8.73185	 -0.375250	
8.80343	 -0.417783	
8.875	 -0.412733	
8.94657	 -0.362067	
9.01815	 -0.363913	
9.08972	 -0.426528	
9.16129	 -0.417619	
9.23286	 -0.375056	
9.30444	 -0.386866	
9.37601	 -0.430624	
9.44758	 -0.430228	
9.51915	 -0.389400	
9.59073	 -0.398797	
9.6623	 -0.429998	
9.73387	 -0.408942	
9.80544	 -0.382973	
9.87702	 -0.397230	
9.94859	 -0.407626	
10.0202	 -0.391548	
10.0917	 -0.358124	
10.1633	 -0.347504	
10.2349	 -0.372904	
10.3065	 -0.372608	
10.378	 -0.374303	
10.4496	 -0.399804	
10.5212	 -0.411973	
10.5927	 -0.414242	
10.6643	 -0.412799	
10.7359	 -0.431774	
10.8075	 -0.442696	
10.879	 -0.432069	
10.9506	 -0.427172	
11.0222	 -0.415277	
11.0937	 -0.406577	
11.1653	 -0.389329	
11.2369	 -0.388433	
11.3085	 -0.409289	
11.38	 -0.406115	
11.4516	 -0.424791	
